<svg id="Layer_2" data-name="Layer 2" xmlns="http://www.w3.org/2000/svg" viewBox="0 0 51.09 251.02"><defs><style>.cls-1{fill:none;}.cls-1,.cls-2,.cls-3{stroke:#231f20;stroke-miterlimit:10;}.cls-2{fill:#fff;}.cls-3{fill:#808285;}</style></defs><title>carrier-v</title><polygon class="cls-1" points="13.32 0.5 13.94 0.5 13.94 0.61 13.32 0.5"/><polygon class="cls-2" points="50.34 97.32 50.42 97.32 50.41 97.71 50.34 97.32"/><polygon class="cls-2" points="7.96 25.38 7.96 26.82 7.66 26.77 7.96 25.38"/><polygon class="cls-3" points="14.11 0.72 14.11 0.61 35.47 0.63 35.45 22.66 40.89 49.68 50.51 97.43 50.59 97.81 50.56 133.61 44.65 133.6 44.6 197.48 40.77 215.25 40.74 250.52 14.35 250.5 8.81 182.31 8.57 182.37 8.01 180.71 4 168.78 4.05 104.49 0.58 104.49 0.59 90.3 0.61 90.3 0.59 90.21 8.08 88.16 8.13 25.49 13.49 0.61 14.11 0.72"/><line class="cls-1" x1="27.23" y1="243.54" x2="27.35" y2="94.86"/><line class="cls-1" x1="40.9" y1="97.31" x2="22.4" y2="7.6"/><line class="cls-1" x1="34.52" y1="131.19" x2="13.92" y2="26.82"/><rect class="cls-1" x="6.07" y="104.86" width="7.15" height="55.14"/><rect class="cls-1" x="39.53" y="192.59" width="4.9" height="4.42"/><rect class="cls-1" x="39.54" y="179.03" width="4.9" height="4.42"/></svg>