<svg id="Layer_2" data-name="Layer 2" xmlns="http://www.w3.org/2000/svg" viewBox="0 0 251 51.12"><defs><style>.cls-1{fill:none;}.cls-1,.cls-2,.cls-3{stroke:#231f20;stroke-miterlimit:10;}.cls-2{fill:#fff;}.cls-3{fill:#808285;}</style></defs><title>carrier</title><polygon class="cls-1" points="250.5 13.28 250.5 13.89 250.39 13.89 250.5 13.28"/><polygon class="cls-2" points="153.71 50.36 153.71 50.45 153.32 50.45 153.71 50.36"/><polygon class="cls-2" points="225.62 7.93 224.18 7.93 224.23 7.64 225.62 7.93"/><polygon class="cls-3" points="250.28 14.06 250.39 14.06 250.39 35.43 228.36 35.43 201.34 40.89 153.6 50.53 153.22 50.62 117.42 50.62 117.42 44.7 53.54 44.7 35.77 40.89 0.5 40.89 0.5 14.49 68.69 8.9 68.63 8.66 70.29 8.1 82.21 4.08 146.5 4.08 146.5 0.62 160.69 0.62 160.69 0.64 160.78 0.62 162.84 8.1 225.51 8.1 250.39 13.44 250.28 14.06"/><line class="cls-1" x1="7.47" y1="27.38" x2="156.15" y2="27.38"/><line class="cls-1" x1="153.71" y1="40.92" x2="243.41" y2="22.36"/><line class="cls-1" x1="119.83" y1="34.58" x2="224.18" y2="13.89"/><rect class="cls-1" x="91" y="6.12" width="55.14" height="7.15"/><rect class="cls-1" x="54.01" y="39.63" width="4.42" height="4.9"/><rect class="cls-1" x="67.57" y="39.63" width="4.42" height="4.9"/></svg>