<svg id="Layer_2" data-name="Layer 2" xmlns="http://www.w3.org/2000/svg" viewBox="0 0 50.95 150.78"><defs><style>.cls-1{fill:#939598;stroke:#231f20;stroke-miterlimit:10;}</style></defs><title>cruiser-v</title><path class="cls-1" d="M55.82-2.12h0c-.21,2.93-.33,5.92-.35,9L55.2,78.45a45.86,45.86,0,0,0,19.3,4.07,45.59,45.59,0,0,0,20-4.21L94.78,7q0-4.5-.27-9h0C93-25,85.39-43.68,75.36-49.85,65.26-43.71,57.51-25.11,55.82-2.12Zm29.29,17L85,35.62,64.3,35.54l.08-20.76c.15-9.22,4.78-16.62,10.45-16.6S85.06,5.64,85.11,14.86Z" transform="translate(-49.44 50.44)"/><path class="cls-1" d="M94.48,78.29l0,12.8a8.81,8.81,0,0,1-8.81,8.75L63.9,99.75a8.81,8.81,0,0,1-8.75-8.81l.05-12.5a45.86,45.86,0,0,0,19.3,4.07A45.61,45.61,0,0,0,94.48,78.29Z" transform="translate(-49.44 50.44)"/><path class="cls-1" d="M74.83-1.82c5.66,0,10.23,7.46,10.3,16.68l-.08,20.76L64.3,35.54l.08-20.76C64.53,5.56,69.18-1.84,74.83-1.82Z" transform="translate(-49.44 50.44)"/><path class="cls-1" d="M74.83-1.82c5.66,0,10.23,7.46,10.3,16.68l-.08,20.76L64.3,35.54l.08-20.76C64.53,5.56,69.18-1.84,74.83-1.82Z" transform="translate(-49.44 50.44)"/><rect class="cls-1" x="51.1" y="55.32" width="3.03" height="5.33" transform="translate(-55.01 160.82) rotate(-89.78)"/><rect class="cls-1" x="95.71" y="55.49" width="3.03" height="5.33" transform="translate(-10.74 205.6) rotate(-89.78)"/></svg>