<svg id="Layer_2" data-name="Layer 2" xmlns="http://www.w3.org/2000/svg" viewBox="0 0 50.99 150.65"><defs><style>.cls-1{fill:#939598;stroke:#231f20;stroke-miterlimit:10;}</style></defs><title>frigate-v</title><path class="cls-1" d="M75.13-49.52h0Z" transform="translate(-49.54 50.06)"/><path class="cls-1" d="M75.13-49.52C89.06-44.2,99.61-20.29,100,8.67V11.9a373.26,373.26,0,0,1-3.38,51c-2.2,15.31-5.29,28.15-9,37.2l-25.5,0c-3.69-9-6.75-21.92-8.87-37.29a374.07,374.07,0,0,1-3.21-50.94V8.59C50.54-20.38,61.18-44.27,75.13-49.52Z" transform="translate(-49.54 50.06)"/><rect class="cls-1" x="63.89" y="24.81" width="22.3" height="14.49" transform="translate(-6.68 157.1) rotate(-89.91)"/><rect class="cls-1" x="63.93" y="-0.47" width="22.3" height="14.49" transform="translate(18.64 131.91) rotate(-89.91)"/><rect class="cls-1" x="63.97" y="-25.01" width="22.3" height="14.49" transform="translate(43.22 107.44) rotate(-89.91)"/></svg>