<svg id="Layer_2" data-name="Layer 2" xmlns="http://www.w3.org/2000/svg" viewBox="0 0 150.05 49.95"><defs><style>.cls-1{fill:#939598;stroke:#231f20;stroke-miterlimit:10;}</style></defs><title>ships</title><path class="cls-1" d="M149.81,25.26a.08.08,0,0,0,0-.05v.09A.08.08,0,0,0,149.81,25.26Z"/><path class="cls-1" d="M149.81,25.26c-5.3,13.94-29.19,24.53-58.15,25H88.43a373.6,373.6,0,0,1-51-3.3C22.12,44.79,9.27,41.72.22,38V12.5c9-3.7,21.91-6.78,37.27-8.93A375,375,0,0,1,88.43.28h3.23C120.63.72,144.53,11.32,149.81,25.26Z"/><rect class="cls-1" x="57.08" y="18.06" width="22.3" height="14.49"/><rect class="cls-1" x="82.36" y="18.06" width="22.3" height="14.49"/><rect class="cls-1" x="106.9" y="18.06" width="22.3" height="14.49"/></svg>