<svg id="Layer_2" data-name="Layer 2" xmlns="http://www.w3.org/2000/svg" viewBox="0 0 51.06 151.12"><defs><style>.cls-1{fill:#939598;stroke:#231f20;stroke-miterlimit:10;}</style></defs><title>submarine-v</title><path class="cls-1" d="M83.11,100l-14.58.14-.15-14.57,2.64,0,0-1.7C61.19,77,53.66,50.12,53.33,18c-.21-20.63,2.6-39.13,7.16-51.6l-11.06.11,0-5.25,13.29-.13C66-45.94,70.12-50,74.56-50s8.57,4,12.11,10.87l12.7-.13.06,5.19L88.91-34c4.82,12.39,8,30.83,8.2,51.46C97.44,50.21,90.22,77.6,80.31,84v1.38l2.64,0Z" transform="translate(-48.87 50.52)"/><ellipse class="cls-1" cx="74.75" cy="-4.91" rx="4.86" ry="15.03" transform="translate(-48.82 51.28) rotate(-0.58)"/></svg>